<svg xmlns="http://www.w3.org/2000/svg" viewBox="0 0 300 400" width="300" height="400" role="img" aria-label="Mythique">
  <defs>
    <linearGradient id="bg-mythic" x1="0" y1="0" x2="0.7" y2="1">
      <stop offset="0%" stop-color="#e2564b"/>
      <stop offset="45%" stop-color="#682526"/>
      <stop offset="100%" stop-color="#060a14"/>
    </linearGradient>
    <radialGradient id="vp-glow-mythic" cx="50%" cy="24%" r="60%">
      <stop offset="0%" stop-color="#E0473B" stop-opacity="0.57"/>
      <stop offset="100%" stop-color="#E0473B" stop-opacity="0"/>
    </radialGradient>
    <radialGradient id="blob-mythic-0" cx="50%" cy="50%" r="50%">
      <stop offset="0%" stop-color="#e66c62" stop-opacity="0.35"/>
      <stop offset="100%" stop-color="#E0473B" stop-opacity="0"/>
    </radialGradient>
    <radialGradient id="blob-mythic-1" cx="50%" cy="50%" r="50%">
      <stop offset="0%" stop-color="#E0473B" stop-opacity="0.28"/>
      <stop offset="100%" stop-color="#E0473B" stop-opacity="0"/>
    </radialGradient>
    <radialGradient id="blob-mythic-2" cx="50%" cy="50%" r="50%">
      <stop offset="0%" stop-color="#a13835" stop-opacity="0.4"/>
      <stop offset="100%" stop-color="#E0473B" stop-opacity="0"/>
    </radialGradient>
    <filter id="grain-mythic">
      <feTurbulence type="fractalNoise" baseFrequency="0.85" numOctaves="2" stitchTiles="stitch" result="noise"/>
      <feColorMatrix in="noise" type="saturate" values="0"/>
    </filter>
    <linearGradient id="vignette-mythic" x1="0" y1="0" x2="0" y2="1">
      <stop offset="0%" stop-color="#060a14" stop-opacity="0.55"/>
      <stop offset="35%" stop-color="#060a14" stop-opacity="0"/>
      <stop offset="75%" stop-color="#060a14" stop-opacity="0"/>
      <stop offset="100%" stop-color="#060a14" stop-opacity="0.6"/>
    </linearGradient>
  </defs>

  <rect width="300" height="400" fill="url(#bg-mythic)"/>
  <circle cx="100.1" cy="106.9" r="150.0" fill="url(#blob-mythic-0)" opacity="0.50"/>
<circle cx="217.4" cy="267.8" r="162.0" fill="url(#blob-mythic-1)" opacity="0.40"/>
<circle cx="148.9" cy="341.8" r="174.0" fill="url(#blob-mythic-2)" opacity="0.30"/>
  <rect width="300" height="400" fill="url(#vp-glow-mythic)"/>

  <g opacity="0.9">
    <line x1="83.5" y1="420" x2="144" y2="104" stroke="#E0473B" stroke-width="1.4" opacity="0.08"/>
    <line x1="216.5" y1="420" x2="156" y2="104" stroke="#E0473B" stroke-width="1.4" opacity="0.08"/>
    <line x1="68.1" y1="420" x2="144" y2="104" stroke="#E0473B" stroke-width="1.4" opacity="0.09"/>
    <line x1="231.9" y1="420" x2="156" y2="104" stroke="#E0473B" stroke-width="1.4" opacity="0.09"/>
    <line x1="52.6" y1="420" x2="144" y2="104" stroke="#E0473B" stroke-width="1.4" opacity="0.09"/>
    <line x1="247.4" y1="420" x2="156" y2="104" stroke="#E0473B" stroke-width="1.4" opacity="0.09"/>
    <line x1="37.2" y1="420" x2="144" y2="104" stroke="#E0473B" stroke-width="1.4" opacity="0.10"/>
    <line x1="262.8" y1="420" x2="156" y2="104" stroke="#E0473B" stroke-width="1.4" opacity="0.10"/>
    <line x1="21.8" y1="420" x2="144" y2="104" stroke="#E0473B" stroke-width="1.4" opacity="0.11"/>
    <line x1="278.2" y1="420" x2="156" y2="104" stroke="#E0473B" stroke-width="1.4" opacity="0.11"/>
    <line x1="6.3" y1="420" x2="144" y2="104" stroke="#E0473B" stroke-width="1.4" opacity="0.11"/>
    <line x1="293.7" y1="420" x2="156" y2="104" stroke="#E0473B" stroke-width="1.4" opacity="0.11"/>
    <line x1="-9.1" y1="420" x2="144" y2="104" stroke="#E0473B" stroke-width="1.4" opacity="0.12"/>
    <line x1="309.1" y1="420" x2="156" y2="104" stroke="#E0473B" stroke-width="1.4" opacity="0.12"/>
    <line x1="-24.6" y1="420" x2="144" y2="104" stroke="#E0473B" stroke-width="1.4" opacity="0.12"/>
    <line x1="324.6" y1="420" x2="156" y2="104" stroke="#E0473B" stroke-width="1.4" opacity="0.12"/>
    <line x1="-40.0" y1="420" x2="144" y2="104" stroke="#E0473B" stroke-width="1.4" opacity="0.13"/>
    <line x1="340.0" y1="420" x2="156" y2="104" stroke="#E0473B" stroke-width="1.4" opacity="0.13"/>
    <rect x="0.0" y="410.0" width="300.0" height="3" fill="#E0473B" opacity="0.17"/>
    <rect x="12.4" y="384.2" width="275.3" height="3" fill="#E0473B" opacity="0.16"/>
    <rect x="24.7" y="358.4" width="250.5" height="3" fill="#E0473B" opacity="0.14"/>
    <rect x="37.1" y="332.5" width="225.8" height="3" fill="#E0473B" opacity="0.13"/>
    <rect x="49.5" y="306.7" width="201.1" height="3" fill="#E0473B" opacity="0.12"/>
    <rect x="61.8" y="280.9" width="176.4" height="3" fill="#E0473B" opacity="0.11"/>
    <rect x="74.2" y="255.1" width="151.6" height="3" fill="#E0473B" opacity="0.09"/>
    <rect x="86.5" y="229.3" width="126.9" height="3" fill="#E0473B" opacity="0.08"/>
    <rect x="98.9" y="203.5" width="102.2" height="3" fill="#E0473B" opacity="0.07"/>
    <rect x="111.3" y="177.6" width="77.5" height="3" fill="#E0473B" opacity="0.06"/>
    <rect x="123.6" y="151.8" width="52.7" height="3" fill="#E0473B" opacity="0.04"/>
  </g>

  <g>
    <path d="M150.0 115.7 L150.0 234.0 L209.9 222.1 Z" fill="#e56358" opacity="0.05"/>
    <path d="M150.0 255.1 L150.0 234.0 L209.9 222.1 Z" fill="#e56358" opacity="0.03"/>
    <path d="M150.0 115.7 L209.9 222.1 L206.3 198.6 Z" fill="#e56358" opacity="0.10"/>
    <path d="M150.0 255.1 L209.9 222.1 L206.3 198.6 Z" fill="#e56358" opacity="0.07"/>
    <path d="M150.0 115.7 L206.3 198.6 L150.0 187.1 Z" fill="#e56358" opacity="0.15"/>
    <path d="M150.0 255.1 L206.3 198.6 L150.0 187.1 Z" fill="#e56358" opacity="0.11"/>
    <path d="M150.0 115.7 L150.0 187.1 L82.9 196.4 Z" fill="#e56358" opacity="0.05"/>
    <path d="M150.0 255.1 L150.0 187.1 L82.9 196.4 Z" fill="#e56358" opacity="0.03"/>
    <path d="M150.0 115.7 L82.9 196.4 L94.1 221.3 Z" fill="#e56358" opacity="0.10"/>
    <path d="M150.0 255.1 L82.9 196.4 L94.1 221.3 Z" fill="#e56358" opacity="0.07"/>
    <path d="M150.0 115.7 L94.1 221.3 L150.0 234.0 Z" fill="#e56358" opacity="0.15"/>
    <path d="M150.0 255.1 L94.1 221.3 L150.0 234.0 Z" fill="#e56358" opacity="0.11"/>
    <path d="M150.0 115.7 L150.0 234.0 L209.9 222.1 L206.3 198.6 L150.0 187.1 L82.9 196.4 L94.1 221.3 L150.0 255.1 Z" fill="none" stroke="#e56358" stroke-width="1" opacity="0.35"/>
  </g>

  <g>
    <path d="M60.04 70.68 L60.44 72.05 L61.81 72.45 L60.44 72.85 L60.04 74.22 L59.64 72.85 L58.27 72.45 L59.64 72.05 Z" fill="#eb8780" opacity="0.59"/>
<path d="M244.66 5.03 L245.92 9.33 L250.22 10.59 L245.92 11.85 L244.66 16.15 L243.40 11.85 L239.10 10.59 L243.40 9.33 Z" fill="#eb8780" opacity="0.41"/>
<path d="M84.37 289.10 L85.52 293.02 L89.45 294.17 L85.52 295.32 L84.37 299.25 L83.22 295.32 L79.30 294.17 L83.22 293.02 Z" fill="#eb8780" opacity="0.37"/>
<path d="M108.42 270.90 L109.79 275.55 L114.44 276.91 L109.79 278.27 L108.42 282.92 L107.06 278.27 L102.41 276.91 L107.06 275.55 Z" fill="#eb8780" opacity="0.40"/>
<path d="M186.93 68.12 L187.76 70.97 L190.61 71.80 L187.76 72.64 L186.93 75.48 L186.10 72.64 L183.25 71.80 L186.10 70.97 Z" fill="#eb8780" opacity="0.66"/>
<path d="M167.76 99.06 L169.11 103.66 L173.71 105.01 L169.11 106.35 L167.76 110.96 L166.42 106.35 L161.81 105.01 L166.42 103.66 Z" fill="#eb8780" opacity="0.62"/>
<path d="M94.73 65.35 L95.92 69.41 L99.99 70.60 L95.92 71.79 L94.73 75.85 L93.54 71.79 L89.48 70.60 L93.54 69.41 Z" fill="#eb8780" opacity="0.54"/>
<path d="M201.10 143.05 L201.65 144.92 L203.52 145.47 L201.65 146.01 L201.10 147.88 L200.56 146.01 L198.69 145.47 L200.56 144.92 Z" fill="#eb8780" opacity="0.53"/>
<path d="M285.64 195.21 L286.22 197.18 L288.19 197.76 L286.22 198.33 L285.64 200.30 L285.07 198.33 L283.10 197.76 L285.07 197.18 Z" fill="#eb8780" opacity="0.40"/>
<path d="M34.81 196.79 L35.54 199.26 L38.00 199.98 L35.54 200.70 L34.81 203.17 L34.09 200.70 L31.62 199.98 L34.09 199.26 Z" fill="#eb8780" opacity="0.67"/>
<path d="M112.64 379.42 L113.06 380.86 L114.50 381.28 L113.06 381.70 L112.64 383.14 L112.22 381.70 L110.78 381.28 L112.22 380.86 Z" fill="#eb8780" opacity="0.62"/>
<path d="M188.22 309.93 L189.32 313.69 L193.08 314.79 L189.32 315.89 L188.22 319.64 L187.13 315.89 L183.37 314.79 L187.13 313.69 Z" fill="#eb8780" opacity="0.59"/>
<path d="M193.03 12.61 L194.09 16.22 L197.70 17.27 L194.09 18.33 L193.03 21.94 L191.98 18.33 L188.37 17.27 L191.98 16.22 Z" fill="#eb8780" opacity="0.67"/>
<path d="M81.72 23.59 L83.00 27.97 L87.38 29.25 L83.00 30.53 L81.72 34.91 L80.43 30.53 L76.05 29.25 L80.43 27.97 Z" fill="#eb8780" opacity="0.54"/>
<path d="M280.31 255.65 L281.04 258.15 L283.55 258.89 L281.04 259.62 L280.31 262.12 L279.58 259.62 L277.08 258.89 L279.58 258.15 Z" fill="#eb8780" opacity="0.53"/>
<path d="M105.20 8.49 L105.98 11.17 L108.66 11.96 L105.98 12.74 L105.20 15.43 L104.41 12.74 L101.73 11.96 L104.41 11.17 Z" fill="#eb8780" opacity="0.55"/>
<path d="M91.27 178.52 L92.64 183.20 L97.32 184.57 L92.64 185.94 L91.27 190.62 L89.90 185.94 L85.22 184.57 L89.90 183.20 Z" fill="#eb8780" opacity="0.67"/>
<path d="M243.05 264.87 L244.16 268.66 L247.95 269.77 L244.16 270.88 L243.05 274.67 L241.94 270.88 L238.15 269.77 L241.94 268.66 Z" fill="#eb8780" opacity="0.37"/>
<path d="M203.63 185.54 L204.34 187.95 L206.75 188.65 L204.34 189.36 L203.63 191.77 L202.93 189.36 L200.52 188.65 L202.93 187.95 Z" fill="#eb8780" opacity="0.43"/>
<path d="M120.34 375.55 L121.40 379.16 L125.01 380.21 L121.40 381.27 L120.34 384.88 L119.28 381.27 L115.67 380.21 L119.28 379.16 Z" fill="#eb8780" opacity="0.67"/>
<path d="M76.69 296.35 L77.59 299.42 L80.65 300.31 L77.59 301.21 L76.69 304.27 L75.80 301.21 L72.73 300.31 L75.80 299.42 Z" fill="#eb8780" opacity="0.39"/>
<path d="M88.96 98.51 L89.94 101.86 L93.29 102.84 L89.94 103.82 L88.96 107.17 L87.98 103.82 L84.63 102.84 L87.98 101.86 Z" fill="#eb8780" opacity="0.47"/>
<path d="M129.14 365.83 L129.58 367.34 L131.09 367.78 L129.58 368.22 L129.14 369.73 L128.70 368.22 L127.19 367.78 L128.70 367.34 Z" fill="#eb8780" opacity="0.45"/>
<path d="M179.78 174.09 L180.59 176.87 L183.37 177.68 L180.59 178.49 L179.78 181.27 L178.96 178.49 L176.18 177.68 L178.96 176.87 Z" fill="#eb8780" opacity="0.58"/>
<path d="M267.69 71.67 L268.39 74.04 L270.76 74.74 L268.39 75.43 L267.69 77.81 L267.00 75.43 L264.62 74.74 L267.00 74.04 Z" fill="#eb8780" opacity="0.63"/>
<path d="M244.78 383.75 L245.59 386.52 L248.36 387.33 L245.59 388.14 L244.78 390.91 L243.97 388.14 L241.20 387.33 L243.97 386.52 Z" fill="#eb8780" opacity="0.40"/>
<path d="M201.12 111.70 L202.24 115.54 L206.08 116.67 L202.24 117.79 L201.12 121.63 L199.99 117.79 L196.16 116.67 L199.99 115.54 Z" fill="#eb8780" opacity="0.38"/>
<path d="M259.12 47.92 L259.64 49.70 L261.42 50.22 L259.64 50.74 L259.12 52.51 L258.60 50.74 L256.83 50.22 L258.60 49.70 Z" fill="#eb8780" opacity="0.62"/>
<path d="M117.05 249.70 L117.59 251.52 L119.41 252.05 L117.59 252.59 L117.05 254.41 L116.52 252.59 L114.70 252.05 L116.52 251.52 Z" fill="#eb8780" opacity="0.45"/>
<path d="M279.69 261.75 L280.43 264.29 L282.97 265.03 L280.43 265.77 L279.69 268.31 L278.95 265.77 L276.41 265.03 L278.95 264.29 Z" fill="#eb8780" opacity="0.45"/>
<path d="M150.58 105.92 L151.76 109.95 L155.78 111.13 L151.76 112.30 L150.58 116.33 L149.40 112.30 L145.38 111.13 L149.40 109.95 Z" fill="#eb8780" opacity="0.52"/>
<path d="M33.36 350.27 L34.18 353.08 L37.00 353.90 L34.18 354.73 L33.36 357.54 L32.54 354.73 L29.72 353.90 L32.54 353.08 Z" fill="#eb8780" opacity="0.61"/>
<path d="M22.53 274.12 L23.49 277.42 L26.79 278.39 L23.49 279.35 L22.53 282.65 L21.56 279.35 L18.26 278.39 L21.56 277.42 Z" fill="#eb8780" opacity="0.46"/>
<path d="M121.48 150.62 L122.01 152.44 L123.82 152.97 L122.01 153.50 L121.48 155.31 L120.95 153.50 L119.13 152.97 L120.95 152.44 Z" fill="#eb8780" opacity="0.53"/>
<path d="M103.54 169.48 L104.13 171.50 L106.15 172.10 L104.13 172.69 L103.54 174.71 L102.95 172.69 L100.92 172.10 L102.95 171.50 Z" fill="#eb8780" opacity="0.54"/>
<path d="M82.19 352.76 L83.44 357.05 L87.73 358.30 L83.44 359.55 L82.19 363.84 L80.93 359.55 L76.64 358.30 L80.93 357.05 Z" fill="#eb8780" opacity="0.54"/>
<path d="M46.91 143.65 L47.28 144.92 L48.55 145.29 L47.28 145.66 L46.91 146.94 L46.54 145.66 L45.26 145.29 L46.54 144.92 Z" fill="#eb8780" opacity="0.66"/>
<path d="M70.36 64.90 L70.81 66.44 L72.34 66.89 L70.81 67.33 L70.36 68.87 L69.91 67.33 L68.38 66.89 L69.91 66.44 Z" fill="#eb8780" opacity="0.55"/>
<path d="M274.39 362.53 L275.33 365.76 L278.57 366.71 L275.33 367.66 L274.39 370.89 L273.44 367.66 L270.21 366.71 L273.44 365.76 Z" fill="#eb8780" opacity="0.40"/>
<path d="M253.97 92.76 L254.43 94.31 L255.98 94.77 L254.43 95.22 L253.97 96.78 L253.52 95.22 L251.96 94.77 L253.52 94.31 Z" fill="#eb8780" opacity="0.63"/>
<path d="M212.37 113.44 L213.66 117.83 L218.05 119.11 L213.66 120.40 L212.37 124.79 L211.09 120.40 L206.70 119.11 L211.09 117.83 Z" fill="#eb8780" opacity="0.65"/>
<path d="M112.47 167.56 L113.46 170.95 L116.84 171.94 L113.46 172.93 L112.47 176.31 L111.47 172.93 L108.09 171.94 L111.47 170.95 Z" fill="#eb8780" opacity="0.63"/>
<path d="M25.47 238.94 L26.72 243.23 L31.01 244.48 L26.72 245.73 L25.47 250.01 L24.22 245.73 L19.94 244.48 L24.22 243.23 Z" fill="#eb8780" opacity="0.63"/>
<path d="M67.34 74.64 L68.25 77.75 L71.37 78.66 L68.25 79.57 L67.34 82.68 L66.43 79.57 L63.32 78.66 L66.43 77.75 Z" fill="#eb8780" opacity="0.48"/>
<path d="M32.44 80.25 L33.45 83.70 L36.89 84.70 L33.45 85.71 L32.44 89.15 L31.43 85.71 L27.99 84.70 L31.43 83.70 Z" fill="#eb8780" opacity="0.66"/>
<path d="M244.23 303.40 L244.67 304.92 L246.20 305.37 L244.67 305.81 L244.23 307.34 L243.78 305.81 L242.26 305.37 L243.78 304.92 Z" fill="#eb8780" opacity="0.43"/>
<path d="M149.50 341.15 L150.39 344.20 L153.44 345.09 L150.39 345.98 L149.50 349.03 L148.61 345.98 L145.56 345.09 L148.61 344.20 Z" fill="#eb8780" opacity="0.44"/>
<path d="M144.51 342.87 L145.14 345.05 L147.32 345.69 L145.14 346.32 L144.51 348.50 L143.87 346.32 L141.69 345.69 L143.87 345.05 Z" fill="#eb8780" opacity="0.66"/>
<path d="M204.46 327.70 L205.83 332.37 L210.49 333.73 L205.83 335.09 L204.46 339.76 L203.10 335.09 L198.44 333.73 L203.10 332.37 Z" fill="#eb8780" opacity="0.60"/>
<path d="M289.86 204.14 L290.28 205.58 L291.72 206.00 L290.28 206.42 L289.86 207.86 L289.44 206.42 L288.00 206.00 L289.44 205.58 Z" fill="#eb8780" opacity="0.63"/>
  </g>

  <rect width="300" height="400" fill="url(#vignette-mythic)"/>
  <rect width="300" height="400" fill="#060a14" opacity="0.05" filter="url(#grain-mythic)"/>
  <rect x="1" y="1" width="298" height="398" rx="14" fill="none" stroke="#E0473B" stroke-opacity="0.55" stroke-width="3.18"/>
</svg>